<svg width="350" height="50" viewBox="0 0 350 50" fill="none" xmlns="http://www.w3.org/2000/svg">
<circle opacity="0.05" cx="145" cy="25" r="24" stroke="white" stroke-width="2"/>
<circle opacity="0.05" cx="205" cy="25" r="24" stroke="white" stroke-width="2"/>
<circle opacity="0.05" cx="265" cy="25" r="24" stroke="white" stroke-width="2"/>
<circle opacity="0.05" cx="85" cy="25" r="24" stroke="white" stroke-width="2"/>
<circle opacity="0.05" cx="25" cy="25" r="24" stroke="white" stroke-width="2"/>
<g clip-path="url(#clip0_101_280)">
<path d="M149.167 16.6667H140.833C138.532 16.6667 136.667 18.5322 136.667 20.8334V29.1667C136.667 31.4679 138.532 33.3334 140.833 33.3334H149.167C151.468 33.3334 153.333 31.4679 153.333 29.1667V20.8334C153.333 18.5322 151.468 16.6667 149.167 16.6667Z" stroke="white" stroke-width="2" stroke-linecap="round" stroke-linejoin="round"/>
<path d="M148.333 24.475C148.436 25.1685 148.318 25.8769 147.995 26.4992C147.672 27.1215 147.161 27.6262 146.535 27.9414C145.908 28.2566 145.199 28.3663 144.506 28.2549C143.814 28.1436 143.175 27.8167 142.679 27.321C142.183 26.8252 141.856 26.1857 141.745 25.4935C141.634 24.8013 141.743 24.0916 142.059 23.4653C142.374 22.8391 142.878 22.3281 143.501 22.0052C144.123 21.6823 144.831 21.5638 145.525 21.6667C146.232 21.7716 146.887 22.1012 147.393 22.6069C147.899 23.1126 148.228 23.7676 148.333 24.475Z" stroke="white" stroke-width="2" stroke-linecap="round" stroke-linejoin="round"/>
<path d="M149.583 20.4167H149.592" stroke="white" stroke-width="2" stroke-linecap="round" stroke-linejoin="round"/>
</g>
<g clip-path="url(#clip1_101_280)">
<path d="M265 15.4167C259.475 15.4167 255 19.8167 255 25.2434C255 29.5859 257.865 33.2684 261.837 34.5667C262.337 34.6592 262.521 34.3551 262.521 34.0942C262.521 33.8609 262.512 33.2426 262.508 32.4234C259.727 33.0159 259.14 31.1051 259.14 31.1051C258.685 29.9709 258.027 29.6676 258.027 29.6676C257.122 29.0584 258.097 29.0709 258.097 29.0709C259.102 29.1392 259.629 30.0834 259.629 30.0834C260.521 31.5859 261.97 31.1517 262.542 30.9009C262.632 30.2651 262.889 29.8326 263.175 29.5867C260.954 29.3409 258.62 28.4959 258.62 24.7309C258.62 23.6584 259.007 22.7817 259.649 22.0942C259.537 21.8459 259.199 20.8467 259.737 19.4934C259.737 19.4934 260.574 19.2301 262.487 20.5009C263.287 20.2826 264.137 20.1742 264.987 20.1692C265.837 20.1742 266.687 20.2826 267.487 20.5009C269.387 19.2301 270.224 19.4934 270.224 19.4934C270.762 20.8467 270.424 21.8459 270.324 22.0942C270.962 22.7817 271.349 23.6584 271.349 24.7309C271.349 28.5059 269.012 29.3367 266.787 29.5784C267.137 29.8734 267.462 30.4759 267.462 31.3967C267.462 32.7118 267.449 33.7684 267.449 34.0876C267.449 34.3451 267.624 34.6526 268.137 34.5542C272.137 33.2642 275 29.5792 275 25.2434C275 19.8167 270.522 15.4167 265 15.4167Z" fill="white"/>
</g>
<path d="M34.1666 17.5001C33.3686 18.063 32.4851 18.4935 31.55 18.7751C31.0481 18.198 30.3811 17.789 29.6392 17.6034C28.8973 17.4177 28.1162 17.4644 27.4017 17.7371C26.6872 18.0098 26.0737 18.4954 25.6441 19.1282C25.2146 19.7609 24.9897 20.5104 25 21.2751V22.1084C23.5355 22.1464 22.0844 21.8216 20.7758 21.163C19.4673 20.5043 18.3419 19.5323 17.5 18.3334C17.5 18.3334 14.1666 25.8334 21.6666 29.1667C19.9504 30.3317 17.9059 30.9159 15.8333 30.8334C23.3333 35.0001 32.5 30.8334 32.5 21.2501C32.4992 21.018 32.4769 20.7864 32.4333 20.5584C33.2838 19.7197 33.884 18.6607 34.1666 17.5001Z" fill="white"/>
<path d="M82.8478 27.9848L82.517 32.6382C82.9903 32.6382 83.1953 32.4349 83.4412 32.1907L85.6604 30.0698L90.2588 33.4374C91.1022 33.9074 91.6964 33.6599 91.9239 32.6615L94.9423 18.5179L94.9431 18.517C95.2106 17.2703 94.4923 16.7828 93.6706 17.0887L75.9285 23.8813C74.7176 24.3513 74.736 25.0264 75.7227 25.3322L80.2586 26.7431L90.7947 20.1504C91.2905 19.8221 91.7414 20.0037 91.3705 20.3321L82.8478 27.9848Z" fill="white"/>
<circle opacity="0.05" cx="325" cy="25" r="24" stroke="white" stroke-width="2"/>
<g clip-path="url(#clip2_101_280)">
<path d="M332.771 22.7567C332.139 22.7567 331.583 23.0226 331.174 23.4367C329.67 22.3801 327.642 21.7001 325.394 21.6276L326.562 16.2892L330.279 17.1359C330.279 18.0592 331.021 18.8134 331.931 18.8134C332.858 18.8134 333.604 18.0392 333.604 17.1151C333.604 16.1909 332.863 15.4167 331.932 15.4167C331.282 15.4167 330.722 15.8142 330.443 16.3576L326.337 15.4342C326.131 15.3784 325.928 15.5284 325.873 15.7384L324.592 21.6234C322.362 21.7176 320.355 22.3967 318.846 23.4542C318.437 23.0226 317.859 22.7567 317.227 22.7567C314.884 22.7567 314.117 25.9476 316.262 27.0384C316.187 27.3759 316.152 27.7359 316.152 28.0951C316.152 31.6792 320.132 34.5834 325.017 34.5834C329.924 34.5834 333.903 31.6792 333.903 28.0951C333.903 27.7359 333.866 27.3592 333.773 27.0209C335.876 25.9259 335.102 22.7584 332.771 22.7567ZM319.667 27.2651C319.667 26.3242 320.409 25.5667 321.341 25.5667C322.251 25.5667 322.993 26.3192 322.993 27.2651C322.993 28.1892 322.252 28.9426 321.341 28.9426C320.413 28.9467 319.667 28.1892 319.667 27.2651ZM328.7 31.2634C327.166 32.8201 322.837 32.8201 321.302 31.2634C321.132 31.1134 321.132 30.8484 321.302 30.6776C321.449 30.5276 321.711 30.5276 321.858 30.6776C323.03 31.8967 326.917 31.9176 328.139 30.6776C328.287 30.5276 328.548 30.5276 328.696 30.6776C328.868 30.8492 328.868 31.1142 328.7 31.2634ZM328.666 28.9459C327.756 28.9459 327.014 28.1934 327.014 27.2701C327.014 26.3292 327.756 25.5717 328.666 25.5717C329.593 25.5717 330.339 26.3242 330.339 27.2701C330.335 28.1892 329.593 28.9459 328.666 28.9459Z" fill="white"/>
</g>
<g clip-path="url(#clip3_101_280)">
<path d="M213.404 18.9441L215 17.4174V17.0833H209.472L205.532 26.8899L201.049 17.0833H195.252V17.4174L197.117 19.6616C197.298 19.8274 197.393 20.0699 197.369 20.3141V29.1333C197.427 29.4508 197.323 29.7774 197.1 30.0083L195 32.5533V32.8833H200.954V32.5491L198.854 30.0083C198.627 29.7766 198.519 29.4558 198.565 29.1333V21.5049L203.792 32.8874H204.399L208.893 21.5049V30.5724C208.893 30.8116 208.893 30.8608 208.737 31.0174L207.12 32.5816V32.9166H214.963V32.5824L213.405 31.0566C213.268 30.9533 213.198 30.7799 213.227 30.6116V19.3891C213.198 19.2199 213.267 19.0466 213.404 18.9441Z" fill="white"/>
</g>
<defs>
<clipPath id="clip0_101_280">
<rect width="20" height="20" fill="white" transform="translate(135 15)"/>
</clipPath>
<clipPath id="clip1_101_280">
<rect width="20" height="20" fill="white" transform="translate(255 15)"/>
</clipPath>
<clipPath id="clip2_101_280">
<rect width="20" height="20" fill="white" transform="translate(315 15)"/>
</clipPath>
<clipPath id="clip3_101_280">
<rect width="20" height="20" fill="white" transform="translate(195 15)"/>
</clipPath>
</defs>
</svg>
