<svg width="1920" height="1710" viewBox="0 0 1920 1710" fill="none" xmlns="http://www.w3.org/2000/svg">
<path fill-rule="evenodd" clip-rule="evenodd" d="M-40.8705 23.1696C-34.7341 54.4682 -1.92068 99.8939 97.7397 108.042C221.1 118.128 237.456 149.509 253.037 179.403L253.038 179.404C255.905 184.905 258.746 190.355 262.222 195.614C284.592 229.448 320.12 263.282 445.127 236.414C570.134 209.545 692.509 200.589 785.935 264.278C860.676 315.228 933.027 321 959.629 321C986.231 321 1058.58 315.228 1133.32 264.278C1226.75 200.589 1349.12 209.545 1474.13 236.414C1599.14 263.282 1634.67 229.448 1657.04 195.614C1660.51 190.355 1663.35 184.904 1666.22 179.403C1681.8 149.509 1698.16 118.128 1821.52 108.042C1938.37 98.4886 1963.19 37.7193 1961 8.52881V1H1961.87V1396.53C1964.06 1425.72 1939.24 1486.49 1822.39 1496.04C1699.03 1506.13 1682.67 1537.51 1667.09 1567.4C1664.22 1572.9 1661.38 1578.36 1657.91 1583.61C1635.54 1617.45 1600.01 1651.28 1475 1624.41C1350 1597.55 1227.62 1588.59 1134.19 1652.28C1059.45 1703.23 987.102 1709 960.5 1709C933.898 1709 861.547 1703.23 786.806 1652.28C693.38 1588.59 571.005 1597.55 445.998 1624.41C320.991 1651.28 285.463 1617.45 263.093 1583.61C259.617 1578.36 256.776 1572.9 253.909 1567.4C238.327 1537.51 221.971 1506.13 98.6108 1496.04C-18.2377 1486.49 -43.0636 1425.72 -40.8705 1396.53V23.1696Z" fill="#1D1534"/>
<path fill-rule="evenodd" clip-rule="evenodd" d="M-40.8705 23.1696C-34.7341 54.4682 -1.92068 99.8939 97.7397 108.042C221.1 118.128 237.456 149.509 253.037 179.403L253.038 179.404C255.905 184.905 258.746 190.355 262.222 195.614C284.592 229.448 320.12 263.282 445.127 236.414C570.134 209.545 692.509 200.589 785.935 264.278C860.676 315.228 933.027 321 959.629 321C986.231 321 1058.58 315.228 1133.32 264.278C1226.75 200.589 1349.12 209.545 1474.13 236.414C1599.14 263.282 1634.67 229.448 1657.04 195.614C1660.51 190.355 1663.35 184.904 1666.22 179.403C1681.8 149.509 1698.16 118.128 1821.52 108.042C1938.37 98.4886 1963.19 37.7193 1961 8.52881V1H1961.87V1396.53C1964.06 1425.72 1939.24 1486.49 1822.39 1496.04C1699.03 1506.13 1682.67 1537.51 1667.09 1567.4C1664.22 1572.9 1661.38 1578.36 1657.91 1583.61C1635.54 1617.45 1600.01 1651.28 1475 1624.41C1350 1597.55 1227.62 1588.59 1134.19 1652.28C1059.45 1703.23 987.102 1709 960.5 1709C933.898 1709 861.547 1703.23 786.806 1652.28C693.38 1588.59 571.005 1597.55 445.998 1624.41C320.991 1651.28 285.463 1617.45 263.093 1583.61C259.617 1578.36 256.776 1572.9 253.909 1567.4C238.327 1537.51 221.971 1506.13 98.6108 1496.04C-18.2377 1486.49 -43.0636 1425.72 -40.8705 1396.53V23.1696Z" fill="url(#paint0_linear_1680_17)"/>
<path d="M-40.8705 23.1696L-40.3799 23.0734L-41.3705 23.1696H-40.8705ZM97.7397 108.042L97.699 108.54L97.7397 108.042ZM253.037 179.403L253.485 179.18L253.481 179.172L253.037 179.403ZM253.038 179.404L252.59 179.627L252.594 179.635L253.038 179.404ZM262.222 195.614L261.805 195.889L262.222 195.614ZM445.127 236.414L445.232 236.903L445.127 236.414ZM785.935 264.278L785.654 264.691L785.935 264.278ZM1133.32 264.278L1133.6 264.691L1133.32 264.278ZM1657.04 195.614L1657.45 195.889L1657.04 195.614ZM1666.22 179.403L1666.66 179.635L1666.22 179.403ZM1821.52 108.042L1821.56 108.54L1821.52 108.042ZM1961 8.52881H1960.5V8.54756L1960.5 8.56627L1961 8.52881ZM1961 1V0.5H1960.5V1H1961ZM1961.87 1H1962.37V0.5H1961.87V1ZM1961.87 1396.53H1961.37V1396.55L1961.37 1396.57L1961.87 1396.53ZM1822.39 1496.04L1822.35 1495.54L1822.39 1496.04ZM1667.09 1567.4L1667.53 1567.63L1667.09 1567.4ZM1657.91 1583.61L1658.32 1583.89L1657.91 1583.61ZM1134.19 1652.28L1134.48 1652.69L1134.19 1652.28ZM445.998 1624.41L446.103 1624.9L445.998 1624.41ZM263.093 1583.61L262.676 1583.89L263.093 1583.61ZM253.909 1567.4L253.465 1567.63L253.909 1567.4ZM98.6108 1496.04L98.6516 1495.54L98.6108 1496.04ZM-40.8705 1396.53L-40.372 1396.57L-40.3705 1396.55V1396.53H-40.8705ZM-41.3612 23.2658C-35.1696 54.8457 -2.11489 100.38 97.699 108.54L97.7804 107.544C-1.72648 99.4081 -34.2986 54.0907 -40.3799 23.0734L-41.3612 23.2658ZM97.699 108.54C159.352 113.581 194.19 123.939 215.549 136.723C236.879 149.49 244.81 164.699 252.594 179.635L253.481 179.172C245.684 164.213 237.647 148.784 216.063 135.865C194.508 122.964 159.488 112.589 97.7804 107.544L97.699 108.54ZM252.59 179.627L252.59 179.627L253.485 179.18L253.485 179.18L252.59 179.627ZM252.594 179.635C255.46 185.132 258.312 190.606 261.805 195.889L262.639 195.338C259.179 190.105 256.35 184.677 253.481 179.173L252.594 179.635ZM261.805 195.889C273.021 212.854 287.573 229.871 315.024 239.25C342.45 248.621 382.687 250.346 445.232 236.903L445.022 235.925C382.56 249.35 342.529 247.592 315.347 238.304C288.189 229.025 273.793 212.208 262.639 195.338L261.805 195.889ZM445.232 236.903C570.232 210.036 692.415 201.13 785.654 264.691L786.217 263.864C692.603 200.048 570.036 209.055 445.022 235.925L445.232 236.903ZM785.654 264.691C860.504 315.716 932.964 321.5 959.629 321.5V320.5C933.089 320.5 860.848 314.74 786.217 263.864L785.654 264.691ZM959.629 321.5C986.294 321.5 1058.75 315.716 1133.6 264.691L1133.04 263.864C1058.41 314.74 986.169 320.5 959.629 320.5V321.5ZM1133.6 264.691C1226.84 201.13 1349.03 210.036 1474.03 236.903L1474.24 235.925C1349.22 209.055 1226.65 200.048 1133.04 263.864L1133.6 264.691ZM1474.03 236.903C1536.57 250.346 1576.81 248.621 1604.23 239.25C1631.68 229.871 1646.24 212.854 1657.45 195.889L1656.62 195.338C1645.46 212.208 1631.07 229.025 1603.91 238.304C1576.73 247.592 1536.7 249.35 1474.24 235.925L1474.03 236.903ZM1657.45 195.889C1660.95 190.606 1663.8 185.132 1666.66 179.635L1665.78 179.172C1662.91 184.677 1660.08 190.105 1656.62 195.338L1657.45 195.889ZM1666.66 179.635C1674.45 164.699 1682.38 149.49 1703.71 136.723C1725.07 123.939 1759.91 113.581 1821.56 108.54L1821.48 107.544C1759.77 112.589 1724.75 122.964 1703.19 135.865C1681.61 148.784 1673.57 164.213 1665.78 179.172L1666.66 179.635ZM1821.56 108.54C1880.06 103.757 1915.6 86.1453 1936.25 66.0072C1956.89 45.8725 1962.61 23.2393 1961.5 8.49135L1960.5 8.56627C1961.59 23.0088 1955.99 45.3555 1935.55 65.2914C1915.12 85.2239 1879.82 102.774 1821.48 107.544L1821.56 108.54ZM1961.5 8.52881V1H1960.5V8.52881H1961.5ZM1961 1.5H1961.87V0.5H1961V1.5ZM1961.37 1V1396.53H1962.37V1H1961.37ZM1961.37 1396.57C1962.46 1411.01 1956.86 1433.36 1936.42 1453.29C1915.99 1473.22 1880.69 1490.77 1822.35 1495.54L1822.43 1496.54C1880.94 1491.76 1916.48 1474.15 1937.12 1454.01C1957.76 1433.87 1963.48 1411.24 1962.37 1396.49L1961.37 1396.57ZM1822.35 1495.54C1760.64 1500.59 1725.62 1510.96 1704.07 1523.87C1682.48 1536.78 1674.44 1552.21 1666.65 1567.17L1667.53 1567.63C1675.32 1552.7 1683.25 1537.49 1704.58 1524.72C1725.94 1511.94 1760.78 1501.58 1822.43 1496.54L1822.35 1495.54ZM1666.65 1567.17C1663.78 1572.68 1660.95 1578.1 1657.49 1583.34L1658.32 1583.89C1661.82 1578.61 1664.67 1573.13 1667.53 1567.63L1666.65 1567.17ZM1657.49 1583.34C1646.34 1600.21 1631.94 1617.02 1604.78 1626.3C1577.6 1635.59 1537.57 1637.35 1475.11 1623.92L1474.9 1624.9C1537.44 1638.35 1577.68 1636.62 1605.1 1627.25C1632.56 1617.87 1647.11 1600.85 1658.32 1583.89L1657.49 1583.34ZM1475.11 1623.92C1350.09 1597.05 1227.53 1588.05 1133.91 1651.86L1134.48 1652.69C1227.71 1589.13 1349.9 1598.04 1474.9 1624.9L1475.11 1623.92ZM1133.91 1651.86C1059.28 1702.74 987.04 1708.5 960.5 1708.5V1709.5C987.165 1709.5 1059.62 1703.72 1134.48 1652.69L1133.91 1651.86ZM960.5 1708.5C933.96 1708.5 861.719 1702.74 787.088 1651.86L786.525 1652.69C861.375 1703.72 933.835 1709.5 960.5 1709.5V1708.5ZM787.088 1651.86C693.474 1588.05 570.907 1597.05 445.893 1623.92L446.103 1624.9C571.103 1598.04 693.286 1589.13 786.525 1652.69L787.088 1651.86ZM445.893 1623.92C383.431 1637.35 343.4 1635.59 316.218 1626.3C289.061 1617.02 274.664 1600.21 263.51 1583.34L262.676 1583.89C273.892 1600.85 288.444 1617.87 315.895 1627.25C343.321 1636.62 383.558 1638.35 446.103 1624.9L445.893 1623.92ZM263.51 1583.34C260.05 1578.1 257.221 1572.68 254.352 1567.17L253.465 1567.63C256.331 1573.13 259.183 1578.61 262.676 1583.89L263.51 1583.34ZM254.352 1567.17C246.555 1552.21 238.518 1536.78 216.934 1523.87C195.379 1510.96 160.359 1500.59 98.6516 1495.54L98.5701 1496.54C160.223 1501.58 195.061 1511.94 216.42 1524.72C237.75 1537.49 245.681 1552.7 253.465 1567.63L254.352 1567.17ZM98.6516 1495.54C40.3084 1490.77 5.01171 1473.22 -15.4213 1453.29C-35.8578 1433.36 -41.457 1411.01 -40.372 1396.57L-41.3691 1396.49C-42.4772 1411.24 -36.76 1433.87 -16.1196 1454.01C4.52415 1474.15 40.0647 1491.76 98.5701 1496.54L98.6516 1495.54ZM-40.3705 1396.53V23.1696H-41.3705V1396.53H-40.3705Z" fill="black"/>
<defs>
<linearGradient id="paint0_linear_1680_17" x1="-41.0001" y1="69.1518" x2="2582.98" y2="573.961" gradientUnits="userSpaceOnUse">
<stop stop-color="#ED374D"/>
<stop offset="0.505208" stop-color="#FA793F"/>
<stop offset="1" stop-color="#F7F651"/>
</linearGradient>
</defs>
</svg>
