<svg width="1920" height="723" viewBox="0 0 1920 723" fill="none" xmlns="http://www.w3.org/2000/svg">
<path fill-rule="evenodd" clip-rule="evenodd" d="M0 0.384766L0 723H1920V1.04977C1898.59 15.1431 1867.28 26.372 1822.39 30.0421C1699.03 40.1278 1682.67 71.509 1667.09 101.404C1664.22 106.905 1661.38 112.355 1657.91 117.614C1635.54 151.448 1600.01 185.283 1475 158.414C1350 131.546 1227.62 122.589 1134.19 186.278C1059.45 237.229 987.102 243 960.5 243C933.898 243 861.547 237.229 786.806 186.278C693.38 122.589 571.005 131.546 445.998 158.414C320.991 185.283 285.463 151.448 263.093 117.614C259.617 112.356 256.776 106.905 253.909 101.404L253.909 101.404C238.327 71.509 221.971 40.1278 98.6108 30.0421C53.0172 26.3145 21.4342 14.7892 0 0.384766Z" fill="#1D1534"/>
</svg>
